solid tripp-trapp-clip3
facet normal 0.0 0.0 -1.0
  outer loop
    vertex 23.449915156882867 14.499999999999973 0.0
    vertex 21.449915156882874 5.999999999999983 0.0
    vertex 21.449915156882867 14.499999999999996 0.0
  endloop
endfacet
facet normal 0.0 0.0 -1.0
  outer loop
    vertex 21.449915156882874 5.999999999999983 0.0
    vertex 23.449915156882867 14.499999999999973 0.0
    vertex 23.44991515688284 9.500000000000002 0.0
  endloop
endfacet
facet normal 0.0 0.0 -1.0
  outer loop
    vertex 23.44991515688284 9.500000000000002 0.0
    vertex 34.44991515688283 5.999999999999982 0.0
    vertex 21.449915156882874 5.999999999999983 0.0
  endloop
endfacet
facet normal 0.0 0.0 -1.0
  outer loop
    vertex 34.44991515688283 5.999999999999982 0.0
    vertex 23.44991515688284 9.500000000000002 0.0
    vertex 37.44991515688286 9.499999999999977 0.0
  endloop
endfacet
facet normal 0.0 0.0 -1.0
  outer loop
    vertex 34.44991515688283 5.999999999999982 0.0
    vertex 37.44991515688286 9.499999999999977 0.0
    vertex 34.44991515688286 -6.49999999999998 0.0
  endloop
endfacet
facet normal 0.0 0.0 -1.0
  outer loop
    vertex 34.44991515688286 -6.49999999999998 0.0
    vertex 37.44991515688286 9.499999999999977 0.0
    vertex 37.44991515688282 -9.5 0.0
  endloop
endfacet
facet normal 0.0 0.0 -1.0
  outer loop
    vertex 37.44991515688282 -9.5 0.0
    vertex 37.44991515688286 9.499999999999977 0.0
    vertex 37.44991515688286 6.499999999999992 0.0
  endloop
endfacet
facet normal 0.0 0.0 -1.0
  outer loop
    vertex 37.44991515688282 -9.5 0.0
    vertex 37.44991515688286 6.499999999999992 0.0
    vertex 37.44991515688291 -6.500000000000059 0.0
  endloop
endfacet
facet normal 0.0 0.0 -1.0
  outer loop
    vertex 37.44991515688291 -6.500000000000059 0.0
    vertex 37.44991515688286 6.499999999999992 0.0
    vertex 39.13223895004922 6.27851787087895 0.0
  endloop
endfacet
facet normal 0.0 0.0 -1.0
  outer loop
    vertex 37.44991515688291 -6.500000000000059 0.0
    vertex 39.13223895004922 6.27851787087895 0.0
    vertex 39.13223895004926 -6.278517870878948 0.0
  endloop
endfacet
facet normal 0.0 0.0 -1.0
  outer loop
    vertex 39.13223895004926 -6.278517870878948 0.0
    vertex 39.13223895004922 6.27851787087895 0.0
    vertex 40.699915156882824 5.629165124598851 0.0
  endloop
endfacet
facet normal 0.0 0.0 -1.0
  outer loop
    vertex 39.13223895004926 -6.278517870878948 0.0
    vertex 40.699915156882824 5.629165124598851 0.0
    vertex 40.699915156882845 -5.629165124598849 0.0
  endloop
endfacet
facet normal 0.0 0.0 -1.0
  outer loop
    vertex 40.699915156882845 -5.629165124598849 0.0
    vertex 40.699915156882824 5.629165124598851 0.0
    vertex 42.04610923459541 4.596194077712539 0.0
  endloop
endfacet
facet normal 0.0 0.0 -1.0
  outer loop
    vertex 40.699915156882845 -5.629165124598849 0.0
    vertex 42.04610923459541 4.596194077712539 0.0
    vertex 42.046109234595434 -4.596194077712553 0.0
  endloop
endfacet
facet normal 0.0 0.0 -1.0
  outer loop
    vertex 42.046109234595434 -4.596194077712553 0.0
    vertex 42.04610923459541 4.596194077712539 0.0
    vertex 43.07908028148168 3.250000000000001 0.0
  endloop
endfacet
facet normal 0.0 0.0 -1.0
  outer loop
    vertex 42.046109234595434 -4.596194077712553 0.0
    vertex 43.07908028148168 3.250000000000001 0.0
    vertex 43.0790802814817 -3.2500000000000004 0.0
  endloop
endfacet
facet normal 0.0 0.0 -1.0
  outer loop
    vertex 43.0790802814817 -3.2500000000000004 0.0
    vertex 43.07908028148168 3.250000000000001 0.0
    vertex 43.72843302776179 1.6823237931663895 0.0
  endloop
endfacet
facet normal 0.0 0.0 -1.0
  outer loop
    vertex 43.0790802814817 -3.2500000000000004 0.0
    vertex 43.72843302776179 1.6823237931663895 0.0
    vertex 43.72843302776179 -1.6823237931663515 0.0
  endloop
endfacet
facet normal 0.0 0.0 -1.0
  outer loop
    vertex 43.72843302776179 -1.6823237931663515 0.0
    vertex 43.72843302776179 1.6823237931663895 0.0
    vertex 43.94991515688283 3.101963130802687e-14 0.0
  endloop
endfacet
facet normal 0.0 0.0 -1.0
  outer loop
    vertex 23.864171156882882 -6.05431959283191 0.0
    vertex 37.44991515688282 -9.5 0.0
    vertex 23.86417115688284 -9.5 0.0
  endloop
endfacet
facet normal 0.0 0.0 -1.0
  outer loop
    vertex 37.44991515688282 -9.5 0.0
    vertex 23.864171156882882 -6.05431959283191 0.0
    vertex 25.67348215688291 -6.500000000000025 0.0
  endloop
endfacet
facet normal 0.0 0.0 -1.0
  outer loop
    vertex 25.67348215688291 -6.500000000000025 0.0
    vertex 23.864171156882882 -6.05431959283191 0.0
    vertex 24.85302385654712 -5.278902539822816 0.0
  endloop
endfacet
facet normal 0.0 0.0 -1.0
  outer loop
    vertex 25.67348215688291 -6.500000000000025 0.0
    vertex 24.85302385654712 -5.278902539822816 0.0
    vertex 25.67348215688291 -5.2789025398228215 0.0
  endloop
endfacet
facet normal 0.0 0.0 -1.0
  outer loop
    vertex 37.44991515688282 -9.5 0.0
    vertex 25.67348215688291 -6.500000000000025 0.0
    vertex 34.44991515688286 -6.49999999999998 0.0
  endloop
endfacet
facet normal 0.0 0.0 -1.0
  outer loop
    vertex 19.0 14.499999999999998 0.0
    vertex 17.0 9.5 0.0
    vertex 17.0 14.499999999999998 0.0
  endloop
endfacet
facet normal 0.0 0.0 -1.0
  outer loop
    vertex 17.0 9.5 0.0
    vertex 3.000000000000001 6.499999999999999 0.0
    vertex 3.000000000000001 9.5 0.0
  endloop
endfacet
facet normal 0.0 0.0 -1.0
  outer loop
    vertex 3.000000000000001 6.499999999999999 0.0
    vertex 17.0 9.5 0.0
    vertex 6.0 6.0 0.0
  endloop
endfacet
facet normal 0.0 0.0 -1.0
  outer loop
    vertex 6.0 6.0 0.0
    vertex 17.0 9.5 0.0
    vertex 19.0 6.0 0.0
  endloop
endfacet
facet normal 0.0 0.0 -1.0
  outer loop
    vertex 19.0 6.0 0.0
    vertex 17.0 9.5 0.0
    vertex 19.0 14.499999999999998 0.0
  endloop
endfacet
facet normal 0.0 0.0 -1.0
  outer loop
    vertex 15.596891300335736 -5.278902539822799 0.0
    vertex 14.776432999999999 -6.500000000000001 0.0
    vertex 14.776432999999999 -5.278902539822799 0.0
  endloop
endfacet
facet normal 0.0 0.0 -1.0
  outer loop
    vertex -3.278517870878942 1.6823237931663892 0.0
    vertex -3.278517870878945 -1.6823237931663817 0.0
    vertex -3.5 1.194030629168669e-15 0.0
  endloop
endfacet
facet normal 0.0 0.0 -1.0
  outer loop
    vertex -3.278517870878945 -1.6823237931663817 0.0
    vertex -3.278517870878942 1.6823237931663892 0.0
    vertex -2.629165124598854 -3.2499999999999947 0.0
  endloop
endfacet
facet normal 0.0 0.0 -1.0
  outer loop
    vertex -2.629165124598854 -3.2499999999999947 0.0
    vertex -3.278517870878942 1.6823237931663892 0.0
    vertex -2.6291651245988494 3.2500000000000027 0.0
  endloop
endfacet
facet normal 0.0 0.0 -1.0
  outer loop
    vertex -2.629165124598854 -3.2499999999999947 0.0
    vertex -2.6291651245988494 3.2500000000000027 0.0
    vertex -1.5961940777125596 -4.596194077712559 0.0
  endloop
endfacet
facet normal 0.0 0.0 -1.0
  outer loop
    vertex -1.5961940777125596 -4.596194077712559 0.0
    vertex -2.6291651245988494 3.2500000000000027 0.0
    vertex -1.5961940777125554 4.596194077712561 0.0
  endloop
endfacet
facet normal 0.0 0.0 -1.0
  outer loop
    vertex -1.5961940777125596 -4.596194077712559 0.0
    vertex -1.5961940777125554 4.596194077712561 0.0
    vertex -0.2500000000000024 -5.629165124598849 0.0
  endloop
endfacet
facet normal 0.0 0.0 -1.0
  outer loop
    vertex -0.2500000000000024 -5.629165124598849 0.0
    vertex -1.5961940777125554 4.596194077712561 0.0
    vertex -0.24999999999999814 5.629165124598852 0.0
  endloop
endfacet
facet normal 0.0 0.0 -1.0
  outer loop
    vertex -0.2500000000000024 -5.629165124598849 0.0
    vertex -0.24999999999999814 5.629165124598852 0.0
    vertex 1.3176762068336103 -6.278517870878942 0.0
  endloop
endfacet
facet normal 0.0 0.0 -1.0
  outer loop
    vertex 1.3176762068336103 -6.278517870878942 0.0
    vertex -0.24999999999999814 5.629165124598852 0.0
    vertex 1.3176762068336176 6.278517870878944 0.0
  endloop
endfacet
facet normal 0.0 0.0 -1.0
  outer loop
    vertex 1.3176762068336103 -6.278517870878942 0.0
    vertex 1.3176762068336176 6.278517870878944 0.0
    vertex 3.0 -6.499999999999999 0.0
  endloop
endfacet
facet normal 0.0 0.0 -1.0
  outer loop
    vertex 3.0 -6.499999999999999 0.0
    vertex 1.3176762068336176 6.278517870878944 0.0
    vertex 3.000000000000001 6.499999999999999 0.0
  endloop
endfacet
facet normal 0.0 0.0 -1.0
  outer loop
    vertex 3.0 -6.499999999999999 0.0
    vertex 3.000000000000001 6.499999999999999 0.0
    vertex 3.0 -9.5 0.0
  endloop
endfacet
facet normal 0.0 0.0 -1.0
  outer loop
    vertex 3.0 -9.5 0.0
    vertex 3.000000000000001 6.499999999999999 0.0
    vertex 6.0 -6.500000000000001 0.0
  endloop
endfacet
facet normal 0.0 0.0 -1.0
  outer loop
    vertex 3.0 -9.5 0.0
    vertex 6.0 -6.500000000000001 0.0
    vertex 16.585744 -9.5 0.0
  endloop
endfacet
facet normal 0.0 0.0 -1.0
  outer loop
    vertex 6.0 -6.500000000000001 0.0
    vertex 3.000000000000001 6.499999999999999 0.0
    vertex 6.0 6.0 0.0
  endloop
endfacet
facet normal 0.0 0.0 -1.0
  outer loop
    vertex 16.585744 -9.5 0.0
    vertex 6.0 -6.500000000000001 0.0
    vertex 14.776432999999999 -6.500000000000001 0.0
  endloop
endfacet
facet normal 0.0 0.0 -1.0
  outer loop
    vertex 16.585744 -9.5 0.0
    vertex 14.776432999999999 -6.500000000000001 0.0
    vertex 15.596891300335736 -5.278902539822799 0.0
  endloop
endfacet
facet normal 0.0 0.0 -1.0
  outer loop
    vertex 16.585744 -9.5 0.0
    vertex 15.596891300335736 -5.278902539822799 0.0
    vertex 16.585744 -6.054319592831872 0.0
  endloop
endfacet
facet normal -0.0 -0.0 1.0
  outer loop
    vertex 25.67348215688291 -5.2789025398228215 80.0
    vertex 24.85302385654712 -5.278902539822816 80.0
    vertex 25.67348215688291 -6.500000000000025 80.0
  endloop
endfacet
facet normal -0.0 -0.0 1.0
  outer loop
    vertex 37.44991515688282 -9.5 80.0
    vertex 23.864171156882882 -6.05431959283191 80.0
    vertex 23.86417115688284 -9.5 80.0
  endloop
endfacet
facet normal -0.0 -0.0 1.0
  outer loop
    vertex 23.864171156882882 -6.05431959283191 80.0
    vertex 37.44991515688282 -9.5 80.0
    vertex 25.67348215688291 -6.500000000000025 80.0
  endloop
endfacet
facet normal -0.0 -0.0 1.0
  outer loop
    vertex 23.864171156882882 -6.05431959283191 80.0
    vertex 25.67348215688291 -6.500000000000025 80.0
    vertex 24.85302385654712 -5.278902539822816 80.0
  endloop
endfacet
facet normal -0.0 -0.0 1.0
  outer loop
    vertex 25.67348215688291 -6.500000000000025 80.0
    vertex 37.44991515688282 -9.5 80.0
    vertex 34.44991515688286 -6.49999999999998 80.0
  endloop
endfacet
facet normal -0.0 -0.0 1.0
  outer loop
    vertex 37.44991515688291 -6.500000000000059 80.0
    vertex 37.44991515688286 6.499999999999992 80.0
    vertex 37.44991515688282 -9.5 80.0
  endloop
endfacet
facet normal -0.0 -0.0 1.0
  outer loop
    vertex 37.44991515688286 6.499999999999992 80.0
    vertex 37.44991515688291 -6.500000000000059 80.0
    vertex 39.13223895004922 6.27851787087895 80.0
  endloop
endfacet
facet normal -0.0 -0.0 1.0
  outer loop
    vertex 39.13223895004922 6.27851787087895 80.0
    vertex 37.44991515688291 -6.500000000000059 80.0
    vertex 39.13223895004926 -6.278517870878948 80.0
  endloop
endfacet
facet normal -0.0 -0.0 1.0
  outer loop
    vertex 39.13223895004922 6.27851787087895 80.0
    vertex 39.13223895004926 -6.278517870878948 80.0
    vertex 40.699915156882824 5.629165124598851 80.0
  endloop
endfacet
facet normal -0.0 -0.0 1.0
  outer loop
    vertex 40.699915156882824 5.629165124598851 80.0
    vertex 39.13223895004926 -6.278517870878948 80.0
    vertex 40.699915156882845 -5.629165124598849 80.0
  endloop
endfacet
facet normal -0.0 -0.0 1.0
  outer loop
    vertex 40.699915156882824 5.629165124598851 80.0
    vertex 40.699915156882845 -5.629165124598849 80.0
    vertex 42.04610923459541 4.596194077712539 80.0
  endloop
endfacet
facet normal -0.0 -0.0 1.0
  outer loop
    vertex 42.04610923459541 4.596194077712539 80.0
    vertex 40.699915156882845 -5.629165124598849 80.0
    vertex 42.046109234595434 -4.596194077712553 80.0
  endloop
endfacet
facet normal -0.0 -0.0 1.0
  outer loop
    vertex 42.04610923459541 4.596194077712539 80.0
    vertex 42.046109234595434 -4.596194077712553 80.0
    vertex 43.07908028148168 3.250000000000001 80.0
  endloop
endfacet
facet normal -0.0 -0.0 1.0
  outer loop
    vertex 43.07908028148168 3.250000000000001 80.0
    vertex 42.046109234595434 -4.596194077712553 80.0
    vertex 43.0790802814817 -3.2500000000000004 80.0
  endloop
endfacet
facet normal -0.0 -0.0 1.0
  outer loop
    vertex 43.07908028148168 3.250000000000001 80.0
    vertex 43.0790802814817 -3.2500000000000004 80.0
    vertex 43.72843302776179 1.6823237931663895 80.0
  endloop
endfacet
facet normal -0.0 -0.0 1.0
  outer loop
    vertex 43.72843302776179 1.6823237931663895 80.0
    vertex 43.0790802814817 -3.2500000000000004 80.0
    vertex 43.72843302776179 -1.6823237931663515 80.0
  endloop
endfacet
facet normal -0.0 -0.0 1.0
  outer loop
    vertex 43.72843302776179 1.6823237931663895 80.0
    vertex 43.72843302776179 -1.6823237931663515 80.0
    vertex 43.94991515688283 3.101963130802687e-14 80.0
  endloop
endfacet
facet normal -0.0 -0.0 1.0
  outer loop
    vertex 34.44991515688283 5.999999999999982 80.0
    vertex 23.44991515688284 9.500000000000002 80.0
    vertex 21.449915156882874 5.999999999999983 80.0
  endloop
endfacet
facet normal -0.0 -0.0 1.0
  outer loop
    vertex 23.44991515688284 9.500000000000002 80.0
    vertex 34.44991515688283 5.999999999999982 80.0
    vertex 37.44991515688286 9.499999999999977 80.0
  endloop
endfacet
facet normal -0.0 -0.0 1.0
  outer loop
    vertex 37.44991515688286 9.499999999999977 80.0
    vertex 34.44991515688283 5.999999999999982 80.0
    vertex 34.44991515688286 -6.49999999999998 80.0
  endloop
endfacet
facet normal -0.0 -0.0 1.0
  outer loop
    vertex 37.44991515688286 9.499999999999977 80.0
    vertex 34.44991515688286 -6.49999999999998 80.0
    vertex 37.44991515688282 -9.5 80.0
  endloop
endfacet
facet normal -0.0 -0.0 1.0
  outer loop
    vertex 37.44991515688286 9.499999999999977 80.0
    vertex 37.44991515688282 -9.5 80.0
    vertex 37.44991515688286 6.499999999999992 80.0
  endloop
endfacet
facet normal -0.0 -0.0 1.0
  outer loop
    vertex 21.449915156882874 5.999999999999983 80.0
    vertex 23.449915156882867 14.499999999999973 80.0
    vertex 21.449915156882867 14.499999999999996 80.0
  endloop
endfacet
facet normal -0.0 -0.0 1.0
  outer loop
    vertex 23.449915156882867 14.499999999999973 80.0
    vertex 21.449915156882874 5.999999999999983 80.0
    vertex 23.44991515688284 9.500000000000002 80.0
  endloop
endfacet
facet normal 1.0 0.0 0.0
  outer loop
    vertex 25.67348215688291 -5.2789025398228215 0.0
    vertex 25.67348215688291 -6.500000000000025 80.0
    vertex 25.67348215688291 -6.500000000000025 0.0
  endloop
endfacet
facet normal 1.0 0.0 0.0
  outer loop
    vertex 25.67348215688291 -6.500000000000025 80.0
    vertex 25.67348215688291 -5.2789025398228215 0.0
    vertex 25.67348215688291 -5.2789025398228215 80.0
  endloop
endfacet
facet normal -5.140979680556625e-15 1.0 0.0
  outer loop
    vertex 25.67348215688291 -6.500000000000025 80.0
    vertex 34.44991515688286 -6.49999999999998 0.0
    vertex 25.67348215688291 -6.500000000000025 0.0
  endloop
endfacet
facet normal -5.140979680556625e-15 1.0 0.0
  outer loop
    vertex 34.44991515688286 -6.49999999999998 0.0
    vertex 25.67348215688291 -6.500000000000025 80.0
    vertex 34.44991515688286 -6.49999999999998 80.0
  endloop
endfacet
facet normal -1.0 -1.80477854883066e-15 -0.0
  outer loop
    vertex 34.44991515688283 5.999999999999982 80.0
    vertex 34.44991515688286 -6.49999999999998 0.0
    vertex 34.44991515688286 -6.49999999999998 80.0
  endloop
endfacet
facet normal -1.0 -1.80477854883066e-15 -0.0
  outer loop
    vertex 34.44991515688286 -6.49999999999998 0.0
    vertex 34.44991515688283 5.999999999999982 80.0
    vertex 34.44991515688283 5.999999999999982 0.0
  endloop
endfacet
facet normal -1.084602493287656e-16 -1.0 -0.0
  outer loop
    vertex 34.44991515688283 5.999999999999982 80.0
    vertex 21.449915156882874 5.999999999999983 0.0
    vertex 34.44991515688283 5.999999999999982 0.0
  endloop
endfacet
facet normal -1.084602493287656e-16 -1.0 -0.0
  outer loop
    vertex 21.449915156882874 5.999999999999983 0.0
    vertex 34.44991515688283 5.999999999999982 80.0
    vertex 21.449915156882874 5.999999999999983 80.0
  endloop
endfacet
facet normal -1.0 -6.635215253053867e-16 -0.0
  outer loop
    vertex 21.449915156882867 14.499999999999996 80.0
    vertex 21.449915156882874 5.999999999999983 0.0
    vertex 21.449915156882874 5.999999999999983 80.0
  endloop
endfacet
facet normal -1.0 -6.635215253053867e-16 -0.0
  outer loop
    vertex 21.449915156882874 5.999999999999983 0.0
    vertex 21.449915156882867 14.499999999999996 80.0
    vertex 21.449915156882867 14.499999999999996 0.0
  endloop
endfacet
facet normal 1.1279865930191595e-14 1.0 0.0
  outer loop
    vertex 21.449915156882867 14.499999999999996 80.0
    vertex 23.449915156882867 14.499999999999973 0.0
    vertex 21.449915156882867 14.499999999999996 0.0
  endloop
endfacet
facet normal 1.1279865930191595e-14 1.0 0.0
  outer loop
    vertex 23.449915156882867 14.499999999999973 0.0
    vertex 21.449915156882867 14.499999999999996 80.0
    vertex 23.449915156882867 14.499999999999973 80.0
  endloop
endfacet
facet normal 1.0 -4.511946372076662e-15 0.0
  outer loop
    vertex 23.449915156882867 14.499999999999973 0.0
    vertex 23.44991515688284 9.500000000000002 80.0
    vertex 23.44991515688284 9.500000000000002 0.0
  endloop
endfacet
facet normal 1.0 -4.511946372076662e-15 0.0
  outer loop
    vertex 23.44991515688284 9.500000000000002 80.0
    vertex 23.449915156882867 14.499999999999973 0.0
    vertex 23.449915156882867 14.499999999999973 80.0
  endloop
endfacet
facet normal 1.8128355959236458e-15 1.0 0.0
  outer loop
    vertex 23.44991515688284 9.500000000000002 80.0
    vertex 37.44991515688286 9.499999999999977 0.0
    vertex 23.44991515688284 9.500000000000002 0.0
  endloop
endfacet
facet normal 1.8128355959236458e-15 1.0 0.0
  outer loop
    vertex 37.44991515688286 9.499999999999977 0.0
    vertex 23.44991515688284 9.500000000000002 80.0
    vertex 37.44991515688286 9.499999999999977 80.0
  endloop
endfacet
facet normal 1.0 0.0 0.0
  outer loop
    vertex 37.44991515688286 9.499999999999977 0.0
    vertex 37.44991515688286 6.499999999999992 80.0
    vertex 37.44991515688286 6.499999999999992 0.0
  endloop
endfacet
facet normal 1.0 0.0 0.0
  outer loop
    vertex 37.44991515688286 6.499999999999992 80.0
    vertex 37.44991515688286 9.499999999999977 0.0
    vertex 37.44991515688286 9.499999999999977 80.0
  endloop
endfacet
facet normal 0.1305261922200456 0.9914448613738114 0.0
  outer loop
    vertex 37.44991515688286 6.499999999999992 80.0
    vertex 39.13223895004922 6.27851787087895 0.0
    vertex 37.44991515688286 6.499999999999992 0.0
  endloop
endfacet
facet normal 0.1305261922200456 0.9914448613738114 0.0
  outer loop
    vertex 39.13223895004922 6.27851787087895 0.0
    vertex 37.44991515688286 6.499999999999992 80.0
    vertex 39.13223895004922 6.27851787087895 80.0
  endloop
endfacet
facet normal 0.38268343236509605 0.9238795325112842 0.0
  outer loop
    vertex 39.13223895004922 6.27851787087895 80.0
    vertex 40.699915156882824 5.629165124598851 0.0
    vertex 39.13223895004922 6.27851787087895 0.0
  endloop
endfacet
facet normal 0.38268343236509605 0.9238795325112842 0.0
  outer loop
    vertex 40.699915156882824 5.629165124598851 0.0
    vertex 39.13223895004922 6.27851787087895 80.0
    vertex 40.699915156882824 5.629165124598851 80.0
  endloop
endfacet
facet normal 0.6087614290087194 0.7933533402912362 0.0
  outer loop
    vertex 40.699915156882824 5.629165124598851 80.0
    vertex 42.04610923459541 4.596194077712539 0.0
    vertex 40.699915156882824 5.629165124598851 0.0
  endloop
endfacet
facet normal 0.6087614290087194 0.7933533402912362 0.0
  outer loop
    vertex 42.04610923459541 4.596194077712539 0.0
    vertex 40.699915156882824 5.629165124598851 80.0
    vertex 42.04610923459541 4.596194077712539 80.0
  endloop
endfacet
facet normal 0.7933533402912372 0.6087614290087183 0.0
  outer loop
    vertex 42.04610923459541 4.596194077712539 0.0
    vertex 43.07908028148168 3.250000000000001 80.0
    vertex 43.07908028148168 3.250000000000001 0.0
  endloop
endfacet
facet normal 0.7933533402912372 0.6087614290087183 0.0
  outer loop
    vertex 43.07908028148168 3.250000000000001 80.0
    vertex 42.04610923459541 4.596194077712539 0.0
    vertex 42.04610923459541 4.596194077712539 80.0
  endloop
endfacet
facet normal 0.9238795325112827 0.3826834323650997 0.0
  outer loop
    vertex 43.07908028148168 3.250000000000001 0.0
    vertex 43.72843302776179 1.6823237931663895 80.0
    vertex 43.72843302776179 1.6823237931663895 0.0
  endloop
endfacet
facet normal 0.9238795325112827 0.3826834323650997 0.0
  outer loop
    vertex 43.72843302776179 1.6823237931663895 80.0
    vertex 43.07908028148168 3.250000000000001 0.0
    vertex 43.07908028148168 3.250000000000001 80.0
  endloop
endfacet
facet normal 0.9914448613738116 0.13052619222004233 0.0
  outer loop
    vertex 43.72843302776179 1.6823237931663895 0.0
    vertex 43.94991515688283 3.101963130802687e-14 80.0
    vertex 43.94991515688283 3.101963130802687e-14 0.0
  endloop
endfacet
facet normal 0.9914448613738116 0.13052619222004233 0.0
  outer loop
    vertex 43.94991515688283 3.101963130802687e-14 80.0
    vertex 43.72843302776179 1.6823237931663895 0.0
    vertex 43.72843302776179 1.6823237931663895 80.0
  endloop
endfacet
facet normal 0.9914448613738118 -0.13052619222004047 0.0
  outer loop
    vertex 43.94991515688283 3.101963130802687e-14 0.0
    vertex 43.72843302776179 -1.6823237931663515 80.0
    vertex 43.72843302776179 -1.6823237931663515 0.0
  endloop
endfacet
facet normal 0.9914448613738118 -0.13052619222004047 0.0
  outer loop
    vertex 43.72843302776179 -1.6823237931663515 80.0
    vertex 43.94991515688283 3.101963130802687e-14 0.0
    vertex 43.94991515688283 3.101963130802687e-14 80.0
  endloop
endfacet
facet normal 0.9238795325112907 -0.3826834323650806 0.0
  outer loop
    vertex 43.72843302776179 -1.6823237931663515 0.0
    vertex 43.0790802814817 -3.2500000000000004 80.0
    vertex 43.0790802814817 -3.2500000000000004 0.0
  endloop
endfacet
facet normal 0.9238795325112907 -0.3826834323650806 0.0
  outer loop
    vertex 43.0790802814817 -3.2500000000000004 80.0
    vertex 43.72843302776179 -1.6823237931663515 0.0
    vertex 43.72843302776179 -1.6823237931663515 80.0
  endloop
endfacet
facet normal 0.7933533402912402 -0.6087614290087141 0.0
  outer loop
    vertex 43.0790802814817 -3.2500000000000004 0.0
    vertex 42.046109234595434 -4.596194077712553 80.0
    vertex 42.046109234595434 -4.596194077712553 0.0
  endloop
endfacet
facet normal 0.7933533402912402 -0.6087614290087141 0.0
  outer loop
    vertex 42.046109234595434 -4.596194077712553 80.0
    vertex 43.0790802814817 -3.2500000000000004 0.0
    vertex 43.0790802814817 -3.2500000000000004 80.0
  endloop
endfacet
facet normal 0.6087614290087137 -0.7933533402912405 0.0
  outer loop
    vertex 42.046109234595434 -4.596194077712553 80.0
    vertex 40.699915156882845 -5.629165124598849 0.0
    vertex 42.046109234595434 -4.596194077712553 0.0
  endloop
endfacet
facet normal 0.6087614290087137 -0.7933533402912405 0.0
  outer loop
    vertex 40.699915156882845 -5.629165124598849 0.0
    vertex 42.046109234595434 -4.596194077712553 80.0
    vertex 40.699915156882845 -5.629165124598849 80.0
  endloop
endfacet
facet normal 0.3826834323651008 -0.9238795325112823 0.0
  outer loop
    vertex 40.699915156882845 -5.629165124598849 80.0
    vertex 39.13223895004926 -6.278517870878948 0.0
    vertex 40.699915156882845 -5.629165124598849 0.0
  endloop
endfacet
facet normal 0.3826834323651008 -0.9238795325112823 0.0
  outer loop
    vertex 39.13223895004926 -6.278517870878948 0.0
    vertex 40.699915156882845 -5.629165124598849 80.0
    vertex 39.13223895004926 -6.278517870878948 80.0
  endloop
endfacet
facet normal 0.1305261922200848 -0.991444861373806 0.0
  outer loop
    vertex 39.13223895004926 -6.278517870878948 80.0
    vertex 37.44991515688291 -6.500000000000059 0.0
    vertex 39.13223895004926 -6.278517870878948 0.0
  endloop
endfacet
facet normal 0.1305261922200848 -0.991444861373806 0.0
  outer loop
    vertex 37.44991515688291 -6.500000000000059 0.0
    vertex 39.13223895004926 -6.278517870878948 80.0
    vertex 37.44991515688291 -6.500000000000059 80.0
  endloop
endfacet
facet normal 1.0 -3.00796424805115e-14 0.0
  outer loop
    vertex 37.44991515688291 -6.500000000000059 0.0
    vertex 37.44991515688282 -9.5 80.0
    vertex 37.44991515688282 -9.5 0.0
  endloop
endfacet
facet normal 1.0 -3.00796424805115e-14 0.0
  outer loop
    vertex 37.44991515688282 -9.5 80.0
    vertex 37.44991515688291 -6.500000000000059 0.0
    vertex 37.44991515688291 -6.500000000000059 80.0
  endloop
endfacet
facet normal -0.0 -1.0 -0.0
  outer loop
    vertex 37.44991515688282 -9.5 80.0
    vertex 23.86417115688284 -9.5 0.0
    vertex 37.44991515688282 -9.5 0.0
  endloop
endfacet
facet normal -0.0 -1.0 -0.0
  outer loop
    vertex 23.86417115688284 -9.5 0.0
    vertex 37.44991515688282 -9.5 80.0
    vertex 23.86417115688284 -9.5 80.0
  endloop
endfacet
facet normal -1.0 1.309450047279597e-14 0.0
  outer loop
    vertex 23.864171156882882 -6.05431959283191 80.0
    vertex 23.86417115688284 -9.5 0.0
    vertex 23.86417115688284 -9.5 80.0
  endloop
endfacet
facet normal -1.0 1.309450047279597e-14 0.0
  outer loop
    vertex 23.86417115688284 -9.5 0.0
    vertex 23.864171156882882 -6.05431959283191 80.0
    vertex 23.864171156882882 -6.05431959283191 0.0
  endloop
endfacet
facet normal -0.6170642083403709 0.7869128050713571 0.0
  outer loop
    vertex 23.864171156882882 -6.05431959283191 80.0
    vertex 24.85302385654712 -5.278902539822816 0.0
    vertex 23.864171156882882 -6.05431959283191 0.0
  endloop
endfacet
facet normal -0.6170642083403709 0.7869128050713571 0.0
  outer loop
    vertex 24.85302385654712 -5.278902539822816 0.0
    vertex 23.864171156882882 -6.05431959283191 80.0
    vertex 24.85302385654712 -5.278902539822816 80.0
  endloop
endfacet
facet normal 6.8741250625260885e-15 1.0 0.0
  outer loop
    vertex 24.85302385654712 -5.278902539822816 80.0
    vertex 25.67348215688291 -5.2789025398228215 0.0
    vertex 24.85302385654712 -5.278902539822816 0.0
  endloop
endfacet
facet normal 6.8741250625260885e-15 1.0 0.0
  outer loop
    vertex 25.67348215688291 -5.2789025398228215 0.0
    vertex 24.85302385654712 -5.278902539822816 80.0
    vertex 25.67348215688291 -5.2789025398228215 80.0
  endloop
endfacet
facet normal -0.0 -0.0 1.0
  outer loop
    vertex -3.278517870878945 -1.6823237931663817 80.0
    vertex -3.278517870878942 1.6823237931663892 80.0
    vertex -3.5 1.194030629168669e-15 80.0
  endloop
endfacet
facet normal -0.0 -0.0 1.0
  outer loop
    vertex -3.278517870878942 1.6823237931663892 80.0
    vertex -3.278517870878945 -1.6823237931663817 80.0
    vertex -2.629165124598854 -3.2499999999999947 80.0
  endloop
endfacet
facet normal -0.0 -0.0 1.0
  outer loop
    vertex -3.278517870878942 1.6823237931663892 80.0
    vertex -2.629165124598854 -3.2499999999999947 80.0
    vertex -2.6291651245988494 3.2500000000000027 80.0
  endloop
endfacet
facet normal -0.0 -0.0 1.0
  outer loop
    vertex -2.6291651245988494 3.2500000000000027 80.0
    vertex -2.629165124598854 -3.2499999999999947 80.0
    vertex -1.5961940777125596 -4.596194077712559 80.0
  endloop
endfacet
facet normal -0.0 -0.0 1.0
  outer loop
    vertex -2.6291651245988494 3.2500000000000027 80.0
    vertex -1.5961940777125596 -4.596194077712559 80.0
    vertex -1.5961940777125554 4.596194077712561 80.0
  endloop
endfacet
facet normal -0.0 -0.0 1.0
  outer loop
    vertex -1.5961940777125554 4.596194077712561 80.0
    vertex -1.5961940777125596 -4.596194077712559 80.0
    vertex -0.2500000000000024 -5.629165124598849 80.0
  endloop
endfacet
facet normal -0.0 -0.0 1.0
  outer loop
    vertex -1.5961940777125554 4.596194077712561 80.0
    vertex -0.2500000000000024 -5.629165124598849 80.0
    vertex -0.24999999999999814 5.629165124598852 80.0
  endloop
endfacet
facet normal -0.0 -0.0 1.0
  outer loop
    vertex -0.24999999999999814 5.629165124598852 80.0
    vertex -0.2500000000000024 -5.629165124598849 80.0
    vertex 1.3176762068336103 -6.278517870878942 80.0
  endloop
endfacet
facet normal -0.0 -0.0 1.0
  outer loop
    vertex -0.24999999999999814 5.629165124598852 80.0
    vertex 1.3176762068336103 -6.278517870878942 80.0
    vertex 1.3176762068336176 6.278517870878944 80.0
  endloop
endfacet
facet normal -0.0 -0.0 1.0
  outer loop
    vertex 1.3176762068336176 6.278517870878944 80.0
    vertex 1.3176762068336103 -6.278517870878942 80.0
    vertex 3.0 -6.499999999999999 80.0
  endloop
endfacet
facet normal -0.0 -0.0 1.0
  outer loop
    vertex 1.3176762068336176 6.278517870878944 80.0
    vertex 3.0 -6.499999999999999 80.0
    vertex 3.000000000000001 6.499999999999999 80.0
  endloop
endfacet
facet normal -0.0 -0.0 1.0
  outer loop
    vertex 16.585744 -9.5 80.0
    vertex 3.0 -6.499999999999999 80.0
    vertex 3.0 -9.5 80.0
  endloop
endfacet
facet normal -0.0 -0.0 1.0
  outer loop
    vertex 3.0 -6.499999999999999 80.0
    vertex 16.585744 -9.5 80.0
    vertex 6.0 -6.500000000000001 80.0
  endloop
endfacet
facet normal -0.0 -0.0 1.0
  outer loop
    vertex 3.0 -6.499999999999999 80.0
    vertex 6.0 -6.500000000000001 80.0
    vertex 3.000000000000001 6.499999999999999 80.0
  endloop
endfacet
facet normal -0.0 -0.0 1.0
  outer loop
    vertex 3.000000000000001 6.499999999999999 80.0
    vertex 6.0 -6.500000000000001 80.0
    vertex 3.000000000000001 9.5 80.0
  endloop
endfacet
facet normal -0.0 -0.0 1.0
  outer loop
    vertex 6.0 -6.500000000000001 80.0
    vertex 16.585744 -9.5 80.0
    vertex 14.776432999999999 -6.500000000000001 80.0
  endloop
endfacet
facet normal -0.0 -0.0 1.0
  outer loop
    vertex 14.776432999999999 -6.500000000000001 80.0
    vertex 16.585744 -9.5 80.0
    vertex 14.776432999999999 -5.278902539822799 80.0
  endloop
endfacet
facet normal -0.0 -0.0 1.0
  outer loop
    vertex 14.776432999999999 -5.278902539822799 80.0
    vertex 16.585744 -9.5 80.0
    vertex 15.596891300335736 -5.278902539822799 80.0
  endloop
endfacet
facet normal -0.0 -0.0 1.0
  outer loop
    vertex 15.596891300335736 -5.278902539822799 80.0
    vertex 16.585744 -9.5 80.0
    vertex 16.585744 -6.054319592831872 80.0
  endloop
endfacet
facet normal -0.0 -0.0 1.0
  outer loop
    vertex 3.000000000000001 9.5 80.0
    vertex 6.0 6.0 80.0
    vertex 17.0 9.5 80.0
  endloop
endfacet
facet normal -0.0 -0.0 1.0
  outer loop
    vertex 6.0 6.0 80.0
    vertex 3.000000000000001 9.5 80.0
    vertex 6.0 -6.500000000000001 80.0
  endloop
endfacet
facet normal -0.0 -0.0 1.0
  outer loop
    vertex 17.0 9.5 80.0
    vertex 6.0 6.0 80.0
    vertex 19.0 6.0 80.0
  endloop
endfacet
facet normal -0.0 -0.0 1.0
  outer loop
    vertex 17.0 9.5 80.0
    vertex 19.0 6.0 80.0
    vertex 17.0 14.499999999999998 80.0
  endloop
endfacet
facet normal -0.0 -0.0 1.0
  outer loop
    vertex 17.0 14.499999999999998 80.0
    vertex 19.0 6.0 80.0
    vertex 19.0 14.499999999999998 80.0
  endloop
endfacet
facet normal -1.0 0.0 0.0
  outer loop
    vertex 14.776432999999999 -5.278902539822799 80.0
    vertex 14.776432999999999 -6.500000000000001 0.0
    vertex 14.776432999999999 -6.500000000000001 80.0
  endloop
endfacet
facet normal -1.0 0.0 0.0
  outer loop
    vertex 14.776432999999999 -6.500000000000001 0.0
    vertex 14.776432999999999 -5.278902539822799 80.0
    vertex 14.776432999999999 -5.278902539822799 0.0
  endloop
endfacet
facet normal -0.0 1.0 0.0
  outer loop
    vertex 14.776432999999999 -5.278902539822799 80.0
    vertex 15.596891300335736 -5.278902539822799 0.0
    vertex 14.776432999999999 -5.278902539822799 0.0
  endloop
endfacet
facet normal -0.0 1.0 0.0
  outer loop
    vertex 15.596891300335736 -5.278902539822799 0.0
    vertex 14.776432999999999 -5.278902539822799 80.0
    vertex 15.596891300335736 -5.278902539822799 80.0
  endloop
endfacet
facet normal 0.6170642083403506 0.7869128050713728 0.0
  outer loop
    vertex 15.596891300335736 -5.278902539822799 80.0
    vertex 16.585744 -6.054319592831872 0.0
    vertex 15.596891300335736 -5.278902539822799 0.0
  endloop
endfacet
facet normal 0.6170642083403506 0.7869128050713728 0.0
  outer loop
    vertex 16.585744 -6.054319592831872 0.0
    vertex 15.596891300335736 -5.278902539822799 80.0
    vertex 16.585744 -6.054319592831872 80.0
  endloop
endfacet
facet normal 1.0 0.0 0.0
  outer loop
    vertex 16.585744 -6.054319592831872 0.0
    vertex 16.585744 -9.5 80.0
    vertex 16.585744 -9.5 0.0
  endloop
endfacet
facet normal 1.0 0.0 0.0
  outer loop
    vertex 16.585744 -9.5 80.0
    vertex 16.585744 -6.054319592831872 0.0
    vertex 16.585744 -6.054319592831872 80.0
  endloop
endfacet
facet normal -0.0 -1.0 -0.0
  outer loop
    vertex 16.585744 -9.5 80.0
    vertex 3.0 -9.5 0.0
    vertex 16.585744 -9.5 0.0
  endloop
endfacet
facet normal -0.0 -1.0 -0.0
  outer loop
    vertex 3.0 -9.5 0.0
    vertex 16.585744 -9.5 80.0
    vertex 3.0 -9.5 80.0
  endloop
endfacet
facet normal -1.0 0.0 0.0
  outer loop
    vertex 3.0 -6.499999999999999 80.0
    vertex 3.0 -9.5 0.0
    vertex 3.0 -9.5 80.0
  endloop
endfacet
facet normal -1.0 0.0 0.0
  outer loop
    vertex 3.0 -9.5 0.0
    vertex 3.0 -6.499999999999999 80.0
    vertex 3.0 -6.499999999999999 0.0
  endloop
endfacet
facet normal -0.13052619222005177 -0.9914448613738104 -0.0
  outer loop
    vertex 3.0 -6.499999999999999 80.0
    vertex 1.3176762068336103 -6.278517870878942 0.0
    vertex 3.0 -6.499999999999999 0.0
  endloop
endfacet
facet normal -0.13052619222005177 -0.9914448613738104 -0.0
  outer loop
    vertex 1.3176762068336103 -6.278517870878942 0.0
    vertex 3.0 -6.499999999999999 80.0
    vertex 1.3176762068336103 -6.278517870878942 80.0
  endloop
endfacet
facet normal -0.3826834323650906 -0.9238795325112864 -0.0
  outer loop
    vertex 1.3176762068336103 -6.278517870878942 80.0
    vertex -0.2500000000000024 -5.629165124598849 0.0
    vertex 1.3176762068336103 -6.278517870878942 0.0
  endloop
endfacet
facet normal -0.3826834323650906 -0.9238795325112864 -0.0
  outer loop
    vertex -0.2500000000000024 -5.629165124598849 0.0
    vertex 1.3176762068336103 -6.278517870878942 80.0
    vertex -0.2500000000000024 -5.629165124598849 80.0
  endloop
endfacet
facet normal -0.6087614290087204 -0.7933533402912353 -0.0
  outer loop
    vertex -0.2500000000000024 -5.629165124598849 80.0
    vertex -1.5961940777125596 -4.596194077712559 0.0
    vertex -0.2500000000000024 -5.629165124598849 0.0
  endloop
endfacet
facet normal -0.6087614290087204 -0.7933533402912353 -0.0
  outer loop
    vertex -1.5961940777125596 -4.596194077712559 0.0
    vertex -0.2500000000000024 -5.629165124598849 80.0
    vertex -1.5961940777125596 -4.596194077712559 80.0
  endloop
endfacet
facet normal -0.7933533402912357 -0.60876142900872 -0.0
  outer loop
    vertex -2.629165124598854 -3.2499999999999947 80.0
    vertex -1.5961940777125596 -4.596194077712559 0.0
    vertex -1.5961940777125596 -4.596194077712559 80.0
  endloop
endfacet
facet normal -0.7933533402912357 -0.60876142900872 -0.0
  outer loop
    vertex -1.5961940777125596 -4.596194077712559 0.0
    vertex -2.629165124598854 -3.2499999999999947 80.0
    vertex -2.629165124598854 -3.2499999999999947 0.0
  endloop
endfacet
facet normal -0.923879532511287 -0.3826834323650895 -0.0
  outer loop
    vertex -3.278517870878945 -1.6823237931663817 80.0
    vertex -2.629165124598854 -3.2499999999999947 0.0
    vertex -2.629165124598854 -3.2499999999999947 80.0
  endloop
endfacet
facet normal -0.923879532511287 -0.3826834323650895 -0.0
  outer loop
    vertex -2.629165124598854 -3.2499999999999947 0.0
    vertex -3.278517870878945 -1.6823237931663817 80.0
    vertex -3.278517870878945 -1.6823237931663817 0.0
  endloop
endfacet
facet normal -0.9914448613738106 -0.1305261922200511 -0.0
  outer loop
    vertex -3.5 1.194030629168669e-15 80.0
    vertex -3.278517870878945 -1.6823237931663817 0.0
    vertex -3.278517870878945 -1.6823237931663817 80.0
  endloop
endfacet
facet normal -0.9914448613738106 -0.1305261922200511 -0.0
  outer loop
    vertex -3.278517870878945 -1.6823237931663817 0.0
    vertex -3.5 1.194030629168669e-15 80.0
    vertex -3.5 1.194030629168669e-15 0.0
  endloop
endfacet
facet normal -0.9914448613738104 0.13052619222005232 0.0
  outer loop
    vertex -3.278517870878942 1.6823237931663892 80.0
    vertex -3.5 1.194030629168669e-15 0.0
    vertex -3.5 1.194030629168669e-15 80.0
  endloop
endfacet
facet normal -0.9914448613738104 0.13052619222005232 0.0
  outer loop
    vertex -3.5 1.194030629168669e-15 0.0
    vertex -3.278517870878942 1.6823237931663892 80.0
    vertex -3.278517870878942 1.6823237931663892 0.0
  endloop
endfacet
facet normal -0.9238795325112866 0.3826834323650901 0.0
  outer loop
    vertex -2.6291651245988494 3.2500000000000027 80.0
    vertex -3.278517870878942 1.6823237931663892 0.0
    vertex -3.278517870878942 1.6823237931663892 80.0
  endloop
endfacet
facet normal -0.9238795325112866 0.3826834323650901 0.0
  outer loop
    vertex -3.278517870878942 1.6823237931663892 0.0
    vertex -2.6291651245988494 3.2500000000000027 80.0
    vertex -2.6291651245988494 3.2500000000000027 0.0
  endloop
endfacet
facet normal -0.7933533402912346 0.6087614290087214 0.0
  outer loop
    vertex -1.5961940777125554 4.596194077712561 80.0
    vertex -2.6291651245988494 3.2500000000000027 0.0
    vertex -2.6291651245988494 3.2500000000000027 80.0
  endloop
endfacet
facet normal -0.7933533402912346 0.6087614290087214 0.0
  outer loop
    vertex -2.6291651245988494 3.2500000000000027 0.0
    vertex -1.5961940777125554 4.596194077712561 80.0
    vertex -1.5961940777125554 4.596194077712561 0.0
  endloop
endfacet
facet normal -0.6087614290087204 0.7933533402912353 0.0
  outer loop
    vertex -1.5961940777125554 4.596194077712561 80.0
    vertex -0.24999999999999814 5.629165124598852 0.0
    vertex -1.5961940777125554 4.596194077712561 0.0
  endloop
endfacet
facet normal -0.6087614290087204 0.7933533402912353 0.0
  outer loop
    vertex -0.24999999999999814 5.629165124598852 0.0
    vertex -1.5961940777125554 4.596194077712561 80.0
    vertex -0.24999999999999814 5.629165124598852 80.0
  endloop
endfacet
facet normal -0.3826834323650896 0.923879532511287 0.0
  outer loop
    vertex -0.24999999999999814 5.629165124598852 80.0
    vertex 1.3176762068336176 6.278517870878944 0.0
    vertex -0.24999999999999814 5.629165124598852 0.0
  endloop
endfacet
facet normal -0.3826834323650896 0.923879532511287 0.0
  outer loop
    vertex 1.3176762068336176 6.278517870878944 0.0
    vertex -0.24999999999999814 5.629165124598852 80.0
    vertex 1.3176762068336176 6.278517870878944 80.0
  endloop
endfacet
facet normal -0.13052619222005107 0.9914448613738105 0.0
  outer loop
    vertex 1.3176762068336176 6.278517870878944 80.0
    vertex 3.000000000000001 6.499999999999999 0.0
    vertex 1.3176762068336176 6.278517870878944 0.0
  endloop
endfacet
facet normal -0.13052619222005107 0.9914448613738105 0.0
  outer loop
    vertex 3.000000000000001 6.499999999999999 0.0
    vertex 1.3176762068336176 6.278517870878944 80.0
    vertex 3.000000000000001 6.499999999999999 80.0
  endloop
endfacet
facet normal -1.0 0.0 0.0
  outer loop
    vertex 3.000000000000001 9.5 80.0
    vertex 3.000000000000001 6.499999999999999 0.0
    vertex 3.000000000000001 6.499999999999999 80.0
  endloop
endfacet
facet normal -1.0 0.0 0.0
  outer loop
    vertex 3.000000000000001 6.499999999999999 0.0
    vertex 3.000000000000001 9.5 80.0
    vertex 3.000000000000001 9.5 0.0
  endloop
endfacet
facet normal -0.0 1.0 0.0
  outer loop
    vertex 3.000000000000001 9.5 80.0
    vertex 17.0 9.5 0.0
    vertex 3.000000000000001 9.5 0.0
  endloop
endfacet
facet normal -0.0 1.0 0.0
  outer loop
    vertex 17.0 9.5 0.0
    vertex 3.000000000000001 9.5 80.0
    vertex 17.0 9.5 80.0
  endloop
endfacet
facet normal -1.0 0.0 0.0
  outer loop
    vertex 17.0 14.499999999999998 80.0
    vertex 17.0 9.5 0.0
    vertex 17.0 9.5 80.0
  endloop
endfacet
facet normal -1.0 0.0 0.0
  outer loop
    vertex 17.0 9.5 0.0
    vertex 17.0 14.499999999999998 80.0
    vertex 17.0 14.499999999999998 0.0
  endloop
endfacet
facet normal -0.0 1.0 0.0
  outer loop
    vertex 17.0 14.499999999999998 80.0
    vertex 19.0 14.499999999999998 0.0
    vertex 17.0 14.499999999999998 0.0
  endloop
endfacet
facet normal -0.0 1.0 0.0
  outer loop
    vertex 19.0 14.499999999999998 0.0
    vertex 17.0 14.499999999999998 80.0
    vertex 19.0 14.499999999999998 80.0
  endloop
endfacet
facet normal 1.0 0.0 0.0
  outer loop
    vertex 19.0 14.499999999999998 0.0
    vertex 19.0 6.0 80.0
    vertex 19.0 6.0 0.0
  endloop
endfacet
facet normal 1.0 0.0 0.0
  outer loop
    vertex 19.0 6.0 80.0
    vertex 19.0 14.499999999999998 0.0
    vertex 19.0 14.499999999999998 80.0
  endloop
endfacet
facet normal -0.0 -1.0 -0.0
  outer loop
    vertex 19.0 6.0 80.0
    vertex 6.0 6.0 0.0
    vertex 19.0 6.0 0.0
  endloop
endfacet
facet normal -0.0 -1.0 -0.0
  outer loop
    vertex 6.0 6.0 0.0
    vertex 19.0 6.0 80.0
    vertex 6.0 6.0 80.0
  endloop
endfacet
facet normal 1.0 0.0 0.0
  outer loop
    vertex 6.0 6.0 0.0
    vertex 6.0 -6.500000000000001 80.0
    vertex 6.0 -6.500000000000001 0.0
  endloop
endfacet
facet normal 1.0 0.0 0.0
  outer loop
    vertex 6.0 -6.500000000000001 80.0
    vertex 6.0 6.0 0.0
    vertex 6.0 6.0 80.0
  endloop
endfacet
facet normal -0.0 1.0 0.0
  outer loop
    vertex 6.0 -6.500000000000001 80.0
    vertex 14.776432999999999 -6.500000000000001 0.0
    vertex 6.0 -6.500000000000001 0.0
  endloop
endfacet
facet normal -0.0 1.0 0.0
  outer loop
    vertex 14.776432999999999 -6.500000000000001 0.0
    vertex 6.0 -6.500000000000001 80.0
    vertex 14.776432999999999 -6.500000000000001 80.0
  endloop
endfacet
endsolid tripp-trapp-clip3
